<?xml version="1.0" encoding="utf-8"?>
<!-- Generator: Adobe Illustrator 26.0.2, SVG Export Plug-In . SVG Version: 6.00 Build 0)  -->
<svg version="1.1" id="Capa_1" xmlns="http://www.w3.org/2000/svg" xmlns:xlink="http://www.w3.org/1999/xlink" x="0px" y="0px"
	 viewBox="0 0 385 264.7" style="enable-background:new 0 0 385 264.7;" xml:space="preserve">
<g>
	<g id="Menu">
		<path d="M12,24.1h360.9c6.6,0,12-5.4,12-12c0-6.6-5.4-12-12-12H12C5.4,0,0,5.4,0,12S5.4,24.1,12,24.1z" fill="#ffffff"/>
		<path d="M372.9,120.3H12c-6.6,0-12,5.4-12,12c0,6.6,5.4,12,12,12h360.9c6.6,0,12-5.4,12-12C385,125.7,379.6,120.3,372.9,120.3z" fill="#ffffff"/>
		<path d="M372.9,240.6H12c-6.6,0-12,5.4-12,12c0,6.6,5.4,12,12,12h360.9c6.6,0,12-5.4,12-12C385,246,379.6,240.6,372.9,240.6z" fill="#ffffff"/>
	</g>
</g>
</svg>
